<?xml version="1.0" encoding="UTF-8" standalone="no"?>
<!-- Created with Inkscape (http://www.inkscape.org/) -->
<svg width="320" height="240" xmlns="http://www.w3.org/2000/svg"
xmlns:ns="http://creativecommons.org/ns#"
xmlns:dc="http://purl.org/dc/elements/1.1/"
xmlns:cc="http://web.resource.org/cc/"
xmlns:rdf="http://www.w3.org/1999/02/22-rdf-syntax-ns#">
<metadata>
<rdf:RDF>
<ns:Work rdf:about="">
<dc:format>image/svg+xml</dc:format>
<dc:type rdf:resource="http://purl.org/dc/dcmitype/StillImage" />
<dc:title>CE label, CE-Kennzeichen</dc:title>
<dc:creator>
<ns:Agent>
<dc:title>Matthias Krüger</dc:title>
</ns:Agent>
</dc:creator>
<ns:license rdf:resource="http://creativecommons.org/licenses/publicdomain/" />
</ns:Work>
<ns:License rdf:about="http://creativecommons.org/licenses/publicdomain/">
<ns:permits rdf:resource="http://creativecommons.org/ns#Reproduction" />
<ns:permits rdf:resource="http://creativecommons.org/ns#Distribution" />
<ns:permits rdf:resource="http://creativecommons.org/ns#DerivativeWorks" />
</ns:License>
<cc:Work rdf:about="">
<dc:format>image/svg+xml</dc:format>
<dc:type rdf:resource="http://purl.org/dc/dcmitype/StillImage" />
</cc:Work>
</rdf:RDF>
</metadata>
<g fill="#000" stroke="none">
<path d="M 130,189.2859 C 126.75354,189.75647 123.5,190 120,190 C 81.36,190 50,158.64 50,120 C 50,81.36 81.36,50 120,50 C 123.5,50 126.75354,50.243526 130,50.714099 L 130,20.5 C 126.71378,20.167608 123.5,20 120,20 C 64.8,20 20,64.8 20,120 C 20,175.2 64.8,220 120,220 C 123.5,220 126.71378,219.83239 130.00444,219.50505 L 130,189.2859 z"/>
<path d="M 300,189.2859 C 296.75354,189.75647 293.5,190 290,190 C 251.36,190 220,158.64 220,120 C 220,81.36 251.36,50 290,50 C 293.5,50 296.75354,50.243526 300,50.714099 L 300,20.5 C 296.71378,20.167608 293.5,20 290,20 C 234.8,20 190,64.8 190,120 C 190,175.2 234.8,220 290,220 C 293.5,220 296.71378,219.83239 300.00444,219.50505 L 300,189.2859 z" />
<rect width="80" height="30" x="200" y="105" />
</g>
</svg>